Coordinates
version=1
nRows=12
nColumns=23
inDegrees=yes

Units are S.I. units (second, meters, Newtons, ...)
If the header above contains a line with 'inDegrees', this indicates whether rotational values are in degrees (yes) or radians (no).

endheader
time	pelvis_tilt	pelvis_list	pelvis_rotation	pelvis_tx	pelvis_ty	pelvis_tz	hip_flexion_r	hip_adduction_r	hip_rotation_r	knee_angle_r	knee_angle_r_beta	ankle_angle_r	subtalar_angle_r	mtp_angle_r	hip_flexion_l	hip_adduction_l	hip_rotation_l	knee_angle_l	knee_angle_l_beta	ankle_angle_l	subtalar_angle_l	mtp_angle_l
      7.50000000	     -2.85963560	     -3.69101634	     -1.11895182	      2.05914897	      0.96952186	      1.10474860	     14.57853085	      4.93828369	     -5.26963447	     41.09486012	      0.71724061	     26.43860248	     -3.55225092	      0.00000000	     23.18720886	     -8.07722190	     -0.18210641	     86.84008556	      1.51564542	      2.01240954	     -7.29684879	      0.00000000
      7.50666667	     -2.74734033	     -3.29898036	     -0.98961859	      2.05957071	      0.97187561	      1.10439951	     12.66297459	      4.47216369	     -5.31563109	     39.78508946	      0.69438080	     26.62373836	     -2.97508442	      0.00000000	     24.19454637	     -7.70773297	     -0.39078841	     86.11804571	      1.50304344	      2.62301286	     -6.95574572	      0.00000000
      7.51333333	     -2.72833943	     -2.88633069	     -0.85185472	      2.06023986	      0.97450752	      1.10402401	     10.76240419	      4.01231909	     -5.34661922	     38.30371935	      0.66852602	     26.61086560	     -2.42240223	      0.00000000	     25.19261929	     -7.32304374	     -0.67282491	     85.14760460	      1.48610605	      3.15941172	     -6.56344305	      0.00000000
      7.52000000	     -3.26768727	     -2.34600174	     -0.91805879	      2.06068630	      0.97669418	      1.10384138	      9.56315865	      3.49756669	     -5.06623099	     36.94416486	      0.64479732	     26.50594098	     -2.03635531	      0.00000000	     26.70923901	     -6.84415123	     -1.18037213	     83.98992804	      1.46590078	      3.57001404	     -6.38154752	      0.00000000
      7.52666667	     -2.69858127	     -1.98128764	     -0.54655828	      2.06221323	      0.98083979	      1.10307210	      6.78602660	      3.00886912	     -5.53986441	     34.92365982	      0.60953285	     25.92002063	     -1.21605501	      0.00000000	     26.81608026	     -6.39140936	     -1.40501978	     82.42226587	      1.43853992	      4.12205509	     -5.93728467	      0.00000000
      7.53333333	     -2.90305372	     -1.39742536	     -0.39034610	      2.06341411	      0.98411463	      1.10237834	      5.05280244	      2.34276762	     -5.72613331	     33.23139102	      0.57999719	     25.11869774	     -0.81243363	      0.00000000	     27.68740211	     -5.71832137	     -1.86801375	     80.70803120	      1.40862088	      4.56930908	     -5.62641088	      0.00000000
      7.54000000	     -2.87603648	     -0.94741551	     -0.14382616	      2.06490326	      0.98793775	      1.10166970	      2.97001033	      1.86897139	     -5.96539695	     31.32292024	      0.54668809	     24.11059713	     -0.18515612	      0.00000000	     28.18517284	     -5.17808505	     -2.27353873	     78.75440282	      1.37452363	      4.96588934	     -5.37993537	      0.00000000
      7.54666667	     -3.04523960	     -0.42854645	      0.08603723	      2.06645635	      0.99164705	      1.10088475	      1.16750212	      1.31486080	     -6.25577415	     29.50169267	      0.51490167	     22.75328207	      0.29721154	      0.00000000	     28.78565777	     -4.51101544	     -2.70548971	     76.59651885	      1.33686145	      5.33500732	     -5.15358054	      0.00000000
      7.55333333	     -3.58585169	      0.15185050	      0.23710486	      2.06785073	      0.99497247	      1.10011720	     -0.06374581	      0.65300677	     -6.60527715	     27.94093611	      0.48766133	     21.07902865	      0.70252078	      0.00000000	     29.69201919	     -3.78694343	     -3.24503885	     74.25392740	      1.29597552	      5.68220766	     -4.89346296	      0.00000000
      7.56000000	     -3.59008746	      0.59321197	      0.59879064	      2.06972649	      0.99905757	      1.09914524	     -2.05055799	      0.23195503	     -7.03001412	     26.03999296	      0.45448361	     19.28385605	      1.10044720	      0.00000000	     29.88924996	     -3.10792544	     -3.57376488	     71.67835927	      1.25102337	      5.99829061	     -4.76346174	      0.00000000
      7.56666667	     -3.90358451	      1.02659572	      0.84178293	      2.07141229	      1.00276991	      1.09824994	     -3.52199009	     -0.19966146	     -7.39696266	     24.39038718	      0.42569256	     17.19201916	      1.36639382	      0.00000000	     30.33100677	     -2.46466923	     -4.00016581	     68.93962576	      1.20322345	      6.31111100	     -4.52667341	      0.00000000
      7.57333333	     -4.24260232	      1.41888838	      1.07408187	      2.07308391	      1.00641458	      1.09735599	     -4.87509044	     -0.57329211	     -7.71258729	     22.84820422	      0.39877639	     14.87771296	      1.47480526	      0.00000000	     30.70326168	     -1.86012057	     -4.43870182	     66.02625333	      1.15237551	      6.59490654	     -4.23850802	      0.00000000
